<svg version="1.1" xmlns="http://www.w3.org/2000/svg" xmlns:xlink="http://www.w3.org/1999/xlink" x="0px" y="0px"
	 viewBox="0 0 512 512" style="enable-background:new 0 0 512 512;" xml:space="preserve">
<path style="fill:#333333;" d="M208.325,467.527V44.472h147.861l0,0c0-19.9-16.132-36.032-36.032-36.032H176.443
	c-11.393,0-20.63,9.236-20.63,20.63v453.86c0,11.393,9.236,20.63,20.63,20.63h143.711c19.9,0,36.032-16.132,36.032-36.032v-0.001
	H208.325V467.527z"/>
<path d="M356.188,459.087H216.766v-14.135h135.003c4.661,0,8.44-3.779,8.44-8.44s-3.779-8.44-8.44-8.44H216.765v-19.223h135.003
	c4.661,0,8.44-3.779,8.44-8.44s-3.779-8.44-8.44-8.44H216.765v-19.224h135.003c4.661,0,8.44-3.779,8.44-8.44s-3.779-8.44-8.44-8.44
	H216.765v-19.223h135.003c4.661,0,8.44-3.779,8.44-8.44s-3.779-8.44-8.44-8.44H216.765v-19.223h135.003
	c4.661,0,8.44-3.779,8.44-8.44s-3.779-8.44-8.44-8.44H216.765V264.44h135.003c4.661,0,8.44-3.779,8.44-8.44
	c0-4.661-3.779-8.44-8.44-8.44H216.765v-19.223h135.003c4.661,0,8.44-3.779,8.44-8.44s-3.779-8.44-8.44-8.44H216.765v-19.223
	h135.003c4.661,0,8.44-3.779,8.44-8.44s-3.779-8.44-8.44-8.44H216.765v-19.224h135.003c4.661,0,8.44-3.779,8.44-8.44
	c0-4.661-3.779-8.44-8.44-8.44H216.765v-19.224h135.003c4.661,0,8.44-3.779,8.44-8.44c0-4.661-3.779-8.44-8.44-8.44H216.765V83.927
	h135.003c4.661,0,8.44-3.779,8.44-8.44c0-4.661-3.779-8.44-8.44-8.44H216.765V52.912h139.422c4.661,0,8.44-3.779,8.44-8.44
	C364.627,19.95,344.676,0,320.154,0H176.443c-16.03,0-29.069,13.041-29.069,29.069v64.89c0,4.661,3.779,8.44,8.44,8.44
	s8.44-3.779,8.44-8.44v-64.89c0-6.722,5.469-12.19,12.19-12.19h143.711c12.273,0,22.7,8.054,26.274,19.153H208.325
	c-4.661,0-8.44,3.779-8.44,8.44v423.055c0,4.661,3.779,8.44,8.44,8.44l138.103,0.001c-3.574,11.1-14.001,19.153-26.274,19.153
	H176.443c-6.722,0-12.19-5.469-12.19-12.19V127.719c0-4.661-3.779-8.44-8.44-8.44s-8.44,3.779-8.44,8.44v355.212
	c0,16.03,13.041,29.069,29.069,29.069h143.711c24.522,0,44.472-19.95,44.472-44.473
	C364.627,462.866,360.849,459.087,356.188,459.087z"/>
</svg>
