<svg version="1.1" xmlns="http://www.w3.org/2000/svg" xmlns:xlink="http://www.w3.org/1999/xlink" x="0px" y="0px"
	 viewBox="0 0 512.002 512.002" style="enable-background:new 0 0 512.002 512.002;" xml:space="preserve">
<rect x="160.624" y="36.965" style="fill:#1E1E1D;" width="190.753" height="82.821"/>
<rect x="316.563" y="36.965" style="fill:#0C0C0B;" width="34.813" height="82.821"/>
<path style="fill:#1E1E1D;" d="M178.081,340.37l6.364,76.484c1.696,20.373,18.726,36.046,39.169,36.046h64.773
	c20.444,0,37.474-15.673,39.169-36.046l6.364-76.484H178.081z"/>
<polygon style="fill:#3C3B41;" points="256.001,119.789 351.403,119.789 333.948,340.37 256.001,340.37 178.054,340.37 
	160.599,119.789 "/>
<path style="fill:#0C0C0B;" d="M299.109,340.37l-6.364,76.484c-1.695,20.373-18.725,36.046-39.169,36.046h34.813
	c20.444,0,37.474-15.673,39.169-36.046l6.364-76.484H299.109z"/>
<path style="fill:#1E1E1D;" d="M316.59,119.789L299.136,340.37c17.208,0,34.813,0,34.813,0l17.455-220.581
	C351.403,119.789,316.59,119.789,316.59,119.789z"/>
<rect x="235.303" y="163.116" style="fill:#C7C6CC;" width="41.399" height="49.704"/>
<rect x="235.303" y="213.179" style="fill:#8A8991;" width="41.399" height="49.704"/>
<path d="M359.965,36.965V8.422c0-4.651-3.771-8.422-8.422-8.422c-4.653,0-8.422,3.771-8.422,8.422v20.119h-30.926V8.422
	c0-4.651-3.77-8.422-8.423-8.422s-8.422,3.771-8.422,8.422v20.119h-30.925V8.422c0-4.651-3.77-8.422-8.422-8.422
	c-4.653,0-8.423,3.771-8.423,8.422v20.119h-30.926V8.422c0-4.651-3.77-8.422-8.423-8.422s-8.422,3.771-8.422,8.422v20.119h-30.925
	V8.422c0-4.651-3.77-8.422-8.423-8.422s-8.422,3.771-8.422,8.422v28.542c0,0.572,0.058,1.129,0.166,1.669v80.604
	c-0.026,0.401-0.034,0.805-0.001,1.217l17.455,220.581c0.016,0.204,0.047,0.404,0.077,0.604l6.317,75.914
	c2.043,24.543,22.935,43.77,47.564,43.77h26.343c1.605,5.871,4.875,14.294,11.488,22.589c18.357,23.026,48.237,28.09,70.953,28.09
	c0.81,0,1.612-0.006,2.402-0.019c4.651-0.072,8.363-3.901,8.291-8.553c-0.072-4.65-3.865-8.354-8.552-8.29
	c-46.586,0.695-61.929-20.987-66.926-33.817h20.772c24.629,0,45.521-19.226,47.564-43.77l6.317-75.915
	c0.03-0.2,0.061-0.399,0.077-0.604L359.8,120.454c0.031-0.401,0.024-0.801-0.001-1.197V38.632
	C359.907,38.093,359.965,37.535,359.965,36.965z M342.954,111.367H194.205c-4.653,0-8.422,3.771-8.422,8.422s3.77,8.423,8.422,8.423
	h148.083l-16.692,210.953c-0.025,0.168-0.054,0.336-0.069,0.508l-6.364,76.484c-1.322,15.881-14.84,28.322-30.776,28.322h-64.773
	c-15.935,0-29.454-12.441-30.775-28.322l-5.605-67.363h112.997c4.651,0,8.423-3.771,8.423-8.422s-3.771-8.422-8.423-8.422H185.836
	l-16.788-212.15c0-0.003,0.001-0.006,0.001-0.009V45.387h173.904V111.367z"/>
<path d="M235.301,271.305H276.7c4.653,0,8.422-3.771,8.422-8.422v-49.704c0-0.061-0.008-0.119-0.009-0.18
	c0.001-0.061,0.009-0.119,0.009-0.18v-49.705c0-4.651-3.77-8.423-8.422-8.423h-41.399c-4.653,0-8.422,3.771-8.422,8.423v49.705
	c0,0.061,0.008,0.119,0.009,0.18c-0.001,0.061-0.009,0.119-0.009,0.18v49.705C226.878,267.534,230.649,271.305,235.301,271.305z
	 M243.723,171.537h24.554v32.86h-24.554V171.537z M243.723,221.601h24.554v32.86h-24.554V221.601z"/>
</svg>
