<svg version="1.1" xmlns="http://www.w3.org/2000/svg" xmlns:xlink="http://www.w3.org/1999/xlink" x="0px" y="0px"
	 viewBox="0 0 511.999 511.999" style="enable-background:new 0 0 511.999 511.999;" xml:space="preserve">
<path style="fill:#915016;" d="M111.67,441.902c36.259-34.298,177.495-178.59,232.26-392.763
	c4.373-17.1,21.831-27.336,38.778-22.404l0,0c15.22,4.43,24.675,19.564,21.884,35.168c-12.449,69.6-64.393,256.744-273.6,403.777
	c-7.481,5.257-17.907,2.671-22.241-5.38l0,0C105.467,454.204,106.639,446.661,111.67,441.902z"/>
<path style="fill:#6A3A0E;" d="M382.708,26.735L382.708,26.735c-9.51-2.767-19.18-0.757-26.609,4.56
	c9.48,6.774,14.642,18.548,12.485,30.609c-12.199,68.202-62.346,249.269-261.208,394.865c0.306,1.21,0.763,2.396,1.374,3.532
	c4.336,8.051,14.76,10.637,22.241,5.38C340.198,318.649,392.143,131.504,404.592,61.905
	C407.383,46.299,397.928,31.166,382.708,26.735z"/>
<g>
	<path style="fill:#C7C6CC;" d="M137.502,460.958v24.717c0,9.878,8.007,17.886,17.885,17.886c9.878,0,17.885-8.007,17.885-17.886
		v-51.996C161.91,442.892,149.985,451.991,137.502,460.958z"/>
	<path style="fill:#C7C6CC;" d="M173.273,375.486v-72.03c20.685,0,37.453-20.464,37.453-45.709V50.911
		c0-23.456-15.581-42.471-34.8-42.471h-38.424v407.486C147.862,404.957,160.024,391.425,173.273,375.486z"/>
</g>
<path style="fill:#ADACB2;" d="M175.925,8.44h-2.271v295.005c20.508-0.251,37.071-20.609,37.071-45.696V50.911
	C210.725,27.454,195.145,8.44,175.925,8.44z"/>
<path d="M385.065,18.632c-10.31-3.002-21.124-1.723-30.45,3.6c-9.451,5.395-16.151,14.209-18.864,24.817
	c-12.968,50.715-31.917,101.39-56.321,150.616c-2.07,4.176-0.363,9.24,3.814,11.31c4.177,2.072,9.241,0.362,11.31-3.814
	c24.927-50.284,44.29-102.073,57.551-153.931c1.57-6.138,5.433-11.231,10.878-14.338c5.317-3.036,11.486-3.765,17.366-2.054
	c11.113,3.235,17.965,14.231,15.935,25.58c-5.692,31.822-21.328,96.255-62.101,170.264
	c-40.788,74.039-96.343,139.759-165.507,195.937c-0.244,0.16-0.491,0.317-0.72,0.504c-11.245,9.117-23.148,18.195-35.379,26.978
	c-0.282,0.204-0.55,0.423-0.802,0.656c-1.875,1.342-3.745,2.687-5.636,4.016c-2.126,1.496-4.295,1.281-5.399,1.018
	c-1.95-0.46-3.611-1.734-4.558-3.493c-1.48-2.75-0.951-6.15,1.288-8.267c28.078-26.56,99.994-100.426,161.219-212.421
	c2.236-4.09,0.733-9.217-3.357-11.454c-4.09-2.236-9.217-0.733-11.454,3.357c-26.906,49.217-55.89,90.901-82.165,124.269v-40.806
	c21.288-4.688,37.453-26.774,37.453-53.23V50.911C219.165,22.839,199.768,0,175.925,0h-38.424c-4.661,0-8.44,3.779-8.44,8.44v47.28
	c0,4.661,3.779,8.44,8.44,8.44c4.661,0,8.44-3.779,8.44-8.44v-38.84h29.984c14.535,0,26.361,15.267,26.361,34.032v206.838
	c0,20.55-13.015,37.269-29.013,37.269c-4.661,0-8.44,3.779-8.44,8.44v68.971c-6.258,7.477-12.572,14.777-18.891,21.84V89.525
	c0-4.661-3.779-8.44-8.44-8.44s-8.44,3.779-8.44,8.44V412.62c-9.365,9.803-17.275,17.553-23.192,23.15
	c-7.768,7.348-9.639,19.08-4.551,28.531c3.233,6.004,8.896,10.348,15.538,11.918c1.802,0.425,3.63,0.635,5.449,0.635
	c2.293,0,4.569-0.343,6.757-0.997v9.816c0,14.516,11.81,26.326,26.325,26.326s26.325-11.81,26.325-26.326v-47.892
	C354.28,296.469,400.722,131.47,412.9,63.39C416.453,43.526,404.487,24.285,385.065,18.632z M164.833,485.674
	c0,5.209-4.238,9.447-9.446,9.447c-5.209,0-9.446-4.238-9.446-9.447v-20.306c6.449-4.683,12.745-9.403,18.891-14.155V485.674z"/>
</svg>
