<?xml version="1.0" encoding="iso-8859-1"?>
<!-- Generator: Adobe Illustrator 19.0.0, SVG Export Plug-In . SVG Version: 6.00 Build 0)  -->
<svg version="1.1" id="Capa_1" xmlns="http://www.w3.org/2000/svg" xmlns:xlink="http://www.w3.org/1999/xlink" x="0px" y="0px"
	 viewBox="0 0 512 512" style="enable-background:new 0 0 512 512;" xml:space="preserve">
<path style="fill:#E4E9F4;" d="M473.467,496.188H36.525c-16.569,0-30-13.431-30-30V181.459h496.941v284.729
	C503.467,482.757,490.035,496.188,473.467,496.188z"/>
<path style="fill:#CDD2DF;" d="M452.813,181.824v133.713c0,82.975-67.264,150.239-150.239,150.239H6.525
	c0,16.595,15.033,30.048,31.628,30.048h435.694c16.595,0,30.048-13.453,30.048-30.048V181.824H452.813z"/>
<path style="fill:#FF6464;" d="M503.467,181.459H6.525V90.988c0-16.569,13.431-30,30-30h436.941c16.569,0,30,13.431,30,30v90.471
	H503.467z"/>
<path style="fill:#ED4545;" d="M473.349,60.988h-50.196c16.634,0,30.118,13.484,30.118,30.118v90.353h50.196V91.106
	C503.467,74.472,489.983,60.988,473.349,60.988z"/>
<g>
	<path style="fill:#7A6CF7;" d="M89.993,268.507H58.588c-3.803,0-6.886-3.083-6.886-6.886v-31.405c0-3.803,3.083-6.886,6.886-6.886
		h31.405c3.803,0,6.886,3.083,6.886,6.886v31.405C96.878,265.424,93.796,268.507,89.993,268.507z"/>
	<path style="fill:#7A6CF7;" d="M451.405,358.4H420c-3.803,0-6.886-3.083-6.886-6.886v-31.405c0-3.803,3.083-6.886,6.886-6.886
		h31.405c3.803,0,6.886,3.083,6.886,6.886v31.405C458.29,355.317,455.207,358.4,451.405,358.4z"/>
	<path style="fill:#7A6CF7;" d="M89.993,448.753H58.588c-3.803,0-6.886-3.083-6.886-6.886v-31.405c0-3.803,3.083-6.886,6.886-6.886
		h31.405c3.803,0,6.886,3.083,6.886,6.886v31.405C96.878,445.67,93.796,448.753,89.993,448.753z"/>
	<path style="fill:#7A6CF7;" d="M180.346,448.753H148.94c-3.803,0-6.886-3.083-6.886-6.886v-31.405c0-3.803,3.083-6.886,6.886-6.886
		h31.405c3.803,0,6.886,3.083,6.886,6.886v31.405C187.231,445.67,184.149,448.753,180.346,448.753z"/>
	<path style="fill:#7A6CF7;" d="M270.699,448.753h-31.405c-3.803,0-6.886-3.083-6.886-6.886v-31.405
		c0-3.803,3.083-6.886,6.886-6.886h31.405c3.803,0,6.886,3.083,6.886,6.886v31.405C277.584,445.67,274.502,448.753,270.699,448.753z
		"/>
	<path style="fill:#7A6CF7;" d="M361.052,448.753h-31.405c-3.803,0-6.886-3.083-6.886-6.886v-31.405
		c0-3.803,3.083-6.886,6.886-6.886h31.405c3.803,0,6.886,3.083,6.886,6.886v31.405C367.937,445.67,364.854,448.753,361.052,448.753z
		"/>
</g>
<g>
	<path style="fill:#555E6B;" d="M118.551,109.176h-0.177c-12.426,0-22.5-10.074-22.5-22.5V38.312c0-12.426,10.074-22.5,22.5-22.5
		h0.177c12.426,0,22.5,10.074,22.5,22.5v48.365C141.051,99.103,130.977,109.176,118.551,109.176z"/>
	<path style="fill:#555E6B;" d="M391.618,109.176h-0.177c-12.426,0-22.5-10.074-22.5-22.5V38.312c0-12.426,10.074-22.5,22.5-22.5
		h0.177c12.426,0,22.5,10.074,22.5,22.5v48.365C414.118,99.103,404.044,109.176,391.618,109.176z"/>
</g>
<path d="M316.235,403.576v45.176c0,4.159,3.371,7.529,7.529,7.529h45.176c4.158,0,7.529-3.371,7.529-7.529v-45.176
	c0-4.159-3.371-7.529-7.529-7.529h-45.176C319.606,396.047,316.235,399.418,316.235,403.576z M331.294,411.106h30.118v30.118
	h-30.118V411.106z M378.78,224.623c-2.94-2.939-7.707-2.939-10.648,0l-26.621,26.621l-12.423-12.424
	c-2.94-2.939-7.708-2.939-10.648,0c-2.941,2.941-2.941,7.708,0,10.649l17.747,17.747c1.47,1.47,3.397,2.205,5.324,2.205
	c1.926,0,3.854-0.735,5.324-2.205l31.945-31.944C381.721,232.33,381.721,227.564,378.78,224.623z M323.46,358.705
	c1.47,1.47,3.397,2.205,5.324,2.205s3.854-0.735,5.324-2.205l12.245-12.245l12.245,12.245c1.47,1.47,3.397,2.205,5.324,2.205
	s3.854-0.735,5.324-2.205c2.941-2.941,2.941-7.708,0-10.649l-12.244-12.244l12.244-12.244c2.941-2.941,2.941-7.708,0-10.649
	c-2.94-2.939-7.708-2.939-10.648,0l-12.245,12.245l-12.245-12.245c-2.94-2.939-7.708-2.939-10.648,0
	c-2.941,2.941-2.941,7.708,0,10.649l12.244,12.244l-12.244,12.244C320.52,350.997,320.52,355.764,323.46,358.705z M504.471,388.528
	c4.158,0,7.529-3.371,7.529-7.529V91.106c0-20.759-16.888-37.647-37.647-37.647h-52.706V38.4c0-16.607-13.511-30.118-30.118-30.118
	c-13.216,0-25.084,8.837-28.862,21.491c-1.19,3.984,1.076,8.179,5.061,9.369c3.986,1.19,8.179-1.076,9.369-5.061
	c1.888-6.324,7.823-10.74,14.433-10.74c8.303,0,15.059,6.755,15.059,15.059v48.188c0,8.304-6.755,15.059-15.059,15.059
	s-15.059-6.755-15.059-15.059v-25.6c0-4.159-3.371-7.529-7.529-7.529c-0.254,0-0.505,0.013-0.753,0.038
	c-0.248-0.025-0.499-0.038-0.753-0.038H149.584V38.4c0-16.607-13.511-30.118-30.118-30.118S89.349,21.793,89.349,38.4v15.059H37.647
	C16.888,53.459,0,70.347,0,91.106v374.965c0,20.759,16.888,37.647,37.647,37.647h436.706c20.759,0,37.647-16.888,37.647-37.647
	v-42.165c0-4.159-3.371-7.529-7.529-7.529s-7.529,3.371-7.529,7.529v42.165c0,12.455-10.133,22.588-22.588,22.588H37.647
	c-12.455,0-22.588-10.133-22.588-22.588V188.988h24.764c4.158,0,7.529-3.371,7.529-7.529c0-4.159-3.371-7.529-7.529-7.529H15.059
	V91.106c0-12.455,10.133-22.588,22.588-22.588h51.702v18.071c0,16.607,13.511,30.118,30.118,30.118s30.118-13.511,30.118-30.118
	V68.518h211.827v18.071c0,16.607,13.511,30.118,30.118,30.118c16.607,0,30.118-13.511,30.118-30.118V68.518h52.706
	c12.455,0,22.588,10.133,22.588,22.588v82.824H81.568c-4.158,0-7.529,3.371-7.529,7.529c0,4.159,3.371,7.529,7.529,7.529h415.374
	v192.011C496.941,385.158,500.312,388.528,504.471,388.528z M134.525,86.588c0,8.304-6.755,15.059-15.059,15.059
	s-15.059-6.755-15.059-15.059V38.4c0-8.304,6.755-15.059,15.059-15.059s15.059,6.755,15.059,15.059V86.588z M413.813,268.812
	c1.47,1.47,3.397,2.205,5.324,2.205s3.854-0.735,5.324-2.205l12.245-12.245l12.245,12.245c1.47,1.47,3.397,2.205,5.324,2.205
	s3.854-0.735,5.324-2.205c2.941-2.941,2.941-7.708,0-10.649l-12.244-12.244l12.244-12.244c2.941-2.941,2.941-7.708,0-10.649
	c-2.94-2.939-7.708-2.939-10.648,0l-12.245,12.245l-12.245-12.245c-2.94-2.939-7.708-2.939-10.648,0
	c-2.941,2.941-2.941,7.708,0,10.649l12.244,12.244l-12.244,12.244C410.873,261.104,410.873,265.871,413.813,268.812z
	 M406.588,313.224V358.4c0,4.159,3.371,7.529,7.529,7.529h45.176c4.158,0,7.529-3.371,7.529-7.529v-45.176
	c0-4.159-3.371-7.529-7.529-7.529h-45.176C409.959,305.694,406.588,309.065,406.588,313.224z M421.647,320.753h30.118v30.118
	h-30.118V320.753z M143.059,396.047c-4.158,0-7.529,3.371-7.529,7.529v45.176c0,4.159,3.371,7.529,7.529,7.529h45.176
	c4.158,0,7.529-3.371,7.529-7.529v-45.176c0-4.159-3.371-7.529-7.529-7.529H143.059z M180.706,441.224h-30.118v-30.118h30.118
	V441.224z M198.075,224.623c-2.94-2.939-7.707-2.939-10.648,0l-26.621,26.621l-12.423-12.424c-2.94-2.939-7.708-2.939-10.648,0
	c-2.941,2.941-2.941,7.708,0,10.649l17.747,17.747c1.47,1.47,3.397,2.205,5.324,2.205c1.926,0,3.854-0.735,5.324-2.205
	l31.945-31.944C201.015,232.33,201.015,227.564,198.075,224.623z M52.706,396.047c-4.158,0-7.529,3.371-7.529,7.529v45.176
	c0,4.159,3.371,7.529,7.529,7.529h45.176c4.158,0,7.529-3.371,7.529-7.529v-45.176c0-4.159-3.371-7.529-7.529-7.529H52.706z
	 M90.353,441.224H60.235v-30.118h30.118V441.224z M107.722,314.515c-2.94-2.939-7.708-2.939-10.648,0l-26.621,26.622L58.03,328.713
	c-2.94-2.939-7.708-2.939-10.648,0c-2.941,2.941-2.941,7.708,0,10.649l17.747,17.747c1.412,1.412,3.327,2.205,5.324,2.205
	c1.997,0,3.912-0.793,5.324-2.205l31.945-31.945C110.662,322.223,110.662,317.456,107.722,314.515z M288.427,314.515
	c-2.94-2.939-7.708-2.939-10.648,0l-26.621,26.622l-12.423-12.424c-2.94-2.939-7.708-2.939-10.648,0
	c-2.941,2.941-2.941,7.708,0,10.649l17.747,17.747c1.412,1.412,3.327,2.205,5.324,2.205c1.997,0,3.912-0.793,5.324-2.205
	l31.945-31.945C291.368,322.223,291.368,317.456,288.427,314.515z M97.882,276.036c4.158,0,7.529-3.371,7.529-7.529V223.33
	c0-4.159-3.371-7.529-7.529-7.529H52.706c-4.158,0-7.529,3.371-7.529,7.529v45.176c0,4.159,3.371,7.529,7.529,7.529h45.176V276.036z
	 M60.235,230.86h30.118v30.118H60.235V230.86z M198.075,314.515c-2.94-2.939-7.708-2.939-10.648,0l-26.621,26.622l-12.423-12.424
	c-2.94-2.939-7.708-2.939-10.648,0c-2.941,2.941-2.941,7.708,0,10.649l17.747,17.747c1.412,1.412,3.327,2.205,5.324,2.205
	c1.997,0,3.912-0.793,5.324-2.205l31.945-31.945C201.015,322.223,201.015,317.456,198.075,314.515z M233.412,396.047
	c-4.158,0-7.529,3.371-7.529,7.529v45.176c0,4.159,3.371,7.529,7.529,7.529h45.176c4.158,0,7.529-3.371,7.529-7.529v-45.176
	c0-4.159-3.371-7.529-7.529-7.529H233.412z M271.059,441.224h-30.118v-30.118h30.118V441.224z M288.427,224.623
	c-2.94-2.939-7.708-2.939-10.648,0l-26.621,26.621l-12.423-12.424c-2.94-2.939-7.708-2.939-10.648,0
	c-2.941,2.941-2.941,7.708,0,10.649l17.747,17.747c1.47,1.47,3.397,2.205,5.324,2.205c1.926,0,3.854-0.735,5.324-2.205
	l31.945-31.944C291.368,232.33,291.368,227.564,288.427,224.623z"/>
<g>
</g>
<g>
</g>
<g>
</g>
<g>
</g>
<g>
</g>
<g>
</g>
<g>
</g>
<g>
</g>
<g>
</g>
<g>
</g>
<g>
</g>
<g>
</g>
<g>
</g>
<g>
</g>
<g>
</g>
</svg>
