<svg id="_x33_0" enable-background="new 0 0 64 64"  viewBox="0 0 64 64"  xmlns="http://www.w3.org/2000/svg"><g><g><g><path d="m35.17 42.83c-.24-.25-.46-.53-.63-.83h-30.54v20h34v-18c-1.1 0-2.1-.45-2.83-1.17z" fill="#ccd1d9"/></g><g><path d="m34 42v3c0 .55-.45 1-1 1h-4c-.55 0-1-.45-1-1v-3z" fill="#fcd770"/></g><g><path d="m16 42v3c0 .55-.45 1-1 1h-4c-.55 0-1-.45-1-1v-3z" fill="#fcd770"/></g><g><path d="m34 42h-6-6-6-6-6-1c-.55 0-1-.45-1-1v-2c0-.55.45-1 1-1h3 8 8 6 6v2c0 .73.2 1.41.54 2z" fill="#969faa"/></g><g><path d="m22 35v3h-8v-4h4 3c.55 0 1 .45 1 1z" fill="#ccd1d9"/></g><g><path d="m14 34v4h-8v-8h8z" fill="#fcd770"/></g><g><path d="m14 28v2h-8v-2c0-1.1.9-2 2-2h2 2c1.1 0 2 .9 2 2z" fill="#ffeaa7"/></g><g><path d="m30.28 23.67.39 2.33h-2.99c-.93 0-1.68.75-1.68 1.68 0 .78.53 1.45 1.28 1.64.8.2 1.48.66 1.96 1.28.48.61.76 1.38.76 2.21 0 1.43-.42 2.82-1.22 4.01l-.78 1.18h-6v-3c0-.55-.45-1-1-1h-3v-1.94c0-1.21.82-2.27 2-2.56s2-1.35 2-2.56v-.94c-.55 0-1.05-.22-1.41-.59-.37-.36-.59-.86-.59-1.41s.22-1.05.59-1.41c.36-.37.86-.59 1.41-.59h6.31c.97 0 1.81.71 1.97 1.67z" fill="#5cd6b3"/></g><g><circle cx="10" cy="24" fill="#5cd6b3" r="2"/></g><g><path d="m2 13v-10c0-.55.45-1 1-1h24c.55 0 1 .45 1 1v10c0 .55-.45 1-1 1h-24c-.55 0-1-.45-1-1z" fill="#69d6f4"/></g><g><path d="m62 3v32c0-.55-.45-1-1-1h-3v-6-22h-20v22 6h-3c-.55 0-1 .45-1 1v-32c0-.55.45-1 1-1h26c.55 0 1 .45 1 1z" fill="#ccd1d9"/></g><g><path d="m58 6v22c0-1.66-1.34-3-3-3h-1v-1c0-.55-.45-1-1-1h-10c-.55 0-1 .45-1 1v1h-1c-1.66 0-3 1.34-3 3v-22z" fill="#69d6f4"/></g><g><path d="m56 59v3h-16v-3c0-.55.45-1 1-1h3 8 3c.55 0 1 .45 1 1z" fill="#969faa"/></g><g><path d="m52 53v5h-8v-5c0-.55.45-1 1-1h1 4 1c.55 0 1 .45 1 1z" fill="#aab2bd"/></g><g><path d="m46 48h4v4h-4z" fill="#ccd1d9"/></g><g><path d="m58 44v3c0 .55-.45 1-1 1h-7-4-7c-.55 0-1-.45-1-1v-3z" fill="#cf9e76"/></g><g><path d="m58 34v10h-20v-10-6c0-1.66 1.34-3 3-3h1v1c0 .55.45 1 1 1h10c.55 0 1-.45 1-1v-1h1c1.66 0 3 1.34 3 3z" fill="#dfb28b"/></g><g><path d="m62 38v2c0 2.21-1.79 4-4 4v-10h3c.55 0 1 .45 1 1v1z" fill="#d3a06c"/></g><g><path d="m38 34v10c-1.1 0-2.1-.45-2.83-1.17-.24-.25-.46-.53-.63-.83-.34-.59-.54-1.27-.54-2v-2-2-1c0-.55.45-1 1-1z" fill="#d3a06c"/></g><g><path d="m54 25v1c0 .55-.45 1-1 1h-10c-.55 0-1-.45-1-1v-1-1c0-.55.45-1 1-1h10c.55 0 1 .45 1 1z" fill="#d3a06c"/></g></g><g><path d="m3 15h24c1.103 0 2-.897 2-2v-10c0-1.103-.897-2-2-2h-24c-1.103 0-2 .897-2 2v10c0 1.103.897 2 2 2zm0-12h24l.001 10h-24.001z"/><path d="m5 7h2v2h-2z"/><path d="m11 7h2v2h-2z"/><path d="m17 7h2v2h-2z"/><path d="m23 7h2v2h-2z"/><path d="m61 1h-26c-1.103 0-2 .897-2 2v32 1 1h-3.17c.754-1.272 1.17-2.707 1.17-4.192 0-2.113-1.432-3.946-3.481-4.459-.306-.077-.519-.349-.519-.664 0-.378.307-.685.685-.685h2.135l.194 1.165 1.973-.329-.722-4.329c-.242-1.453-1.487-2.507-2.959-2.507h-6.306c-1.654 0-3 1.346-3 3 0 1.304.836 2.416 2 2.829v.11c0 .754-.511 1.408-1.243 1.591-1.623.406-2.757 1.858-2.757 3.532v.938h-2v-5c0-1.383-.945-2.539-2.22-2.884.139-.346.22-.721.22-1.116 0-1.654-1.346-3-3-3s-3 1.346-3 3c0 .395.081.77.22 1.116-1.275.345-2.22 1.501-2.22 2.884v9h-2c-1.103 0-2 .897-2 2v2c0 1.103.897 2 2 2v20h54v-4c0-1.103-.897-2-2-2h-2v-4c0-1.103-.897-2-2-2v-2h6v4h-2v2h2c1.103 0 2-.897 2-2v-6-2.101c2.279-.465 4-2.484 4-4.899v-1-1-2-1-32c0-1.103-.897-2-2-2zm-26 2h26v30h-2v-5-23h-22v23 5h-2zm2 58h-14v-10h14v2zm0-12h-14v-6h4v2c0 1.103.897 2 2 2h4c1.103 0 2-.897 2-2v-1.026c.584.442 1.257.773 2 .924v2.102zm20-24.444c-.591-.344-1.268-.556-2-.556 0-1.103-.897-2-2-2h-10c-1.103 0-2 .897-2 2-.732 0-1.409.212-2 .556v-17.556h18zm-3.999 1.444h-10.001v-2h10zm-18.001 13h2v3.816c-1.161-.414-2-1.514-2-2.816zm-6 4h4v2h-4zm10-15c0-1.103.897-2 2-2 0 1.103.897 2 2 2h10c1.103 0 2-.897 2-2 1.103 0 2 .897 2 2v15h-18zm-4 7h2v2h-2v-1zm-16-2.938c0-.754.511-1.408 1.243-1.591 1.623-.407 2.757-1.859 2.757-3.533v-1.938h-1c-.551 0-1-.449-1-1s.449-1 1-1h6.306c.491 0 .906.352.986.836l.194 1.164h-1.802c-1.48 0-2.684 1.204-2.684 2.685 0 1.234.836 2.305 2.033 2.604 1.158.29 1.967 1.325 1.967 2.519 0 1.236-.362 2.433-1.048 3.462l-.487.73h-4.465v-2c0-1.103-.897-2-2-2h-2zm2 2.938v2h-6v-2zm-11-12c.551 0 1 .449 1 1s-.449 1-1 1-1-.449-1-1 .449-1 1-1zm-2 4h4c.551 0 1 .449 1 1v1h-6v-1c0-.551.449-1 1-1zm-1 4h6v6h-6zm-4 8h30v1c0 .342.035.677.101 1h-30.101zm8 4h4v2h-4zm-2 0v2c0 1.103.897 2 2 2h4c1.103 0 2-.897 2-2v-2h4v6h-16v-6zm-4 8h16v10h-16zm34 8v-4h2v-2h-2v-4h6v2c-1.103 0-2 .897-2 2v4h-2c-1.103 0-2 .897-2 2zm16 2h-14v-2h14zm-10-4v-4h6v4zm4-6h-2v-2h2zm-10-4v-2h18v2zm22-7c0 1.302-.839 2.402-2 2.816v-3.816h2zm0-3h-2v-2h2v1z"/><path d="m44.5 14.197h2v3.606h-2z" transform="matrix(.555 -.832 .832 .555 6.948 44.983)"/><path d="m46 9.394h2v7.211h-2z" transform="matrix(.555 -.832 .832 .555 10.112 44.895)"/></g></g></svg>